<?xml version="1.0" encoding="UTF-8" standalone="no"?>
<!-- Created with Inkscape (http://www.inkscape.org/) -->

<svg
   width="63.5mm"
   height="63.5mm"
   viewBox="0 0 63.499998 63.500002"
   version="1.1"
   id="svg1"
   xml:space="preserve"
   inkscape:version="1.3.2 (091e20ef0f, 2023-11-25, custom)"
   sodipodi:docname="death-link.svg"
   xmlns:inkscape="http://www.inkscape.org/namespaces/inkscape"
   xmlns:sodipodi="http://sodipodi.sourceforge.net/DTD/sodipodi-0.dtd"
   xmlns="http://www.w3.org/2000/svg"
   xmlns:svg="http://www.w3.org/2000/svg"><sodipodi:namedview
     id="namedview1"
     pagecolor="#505050"
     bordercolor="#ffffff"
     borderopacity="1"
     inkscape:showpageshadow="0"
     inkscape:pageopacity="0"
     inkscape:pagecheckerboard="1"
     inkscape:deskcolor="#505050"
     inkscape:document-units="mm"
     inkscape:zoom="1.0770412"
     inkscape:cx="480.48299"
     inkscape:cy="228.86774"
     inkscape:window-width="2558"
     inkscape:window-height="1415"
     inkscape:window-x="2560"
     inkscape:window-y="0"
     inkscape:window-maximized="1"
     inkscape:current-layer="SVGRepo_iconCarrier" /><defs
     id="defs1" /><g
     inkscape:label="Layer 1"
     inkscape:groupmode="layer"
     id="layer1"
     transform="translate(22.30821,-79.501181)"><g
       id="SVGRepo_bgCarrier"
       stroke-width="0"
       transform="matrix(0.26458333,0,0,0.26458333,19.970602,154.8178)" /><g
       id="SVGRepo_tracerCarrier"
       stroke-linecap="round"
       stroke-linejoin="round"
       transform="matrix(0.26458333,0,0,0.26458333,19.970602,154.8178)" /><g
       id="SVGRepo_iconCarrier"
       transform="matrix(0.26458333,0,0,0.26458333,28.491789,73.151262)"><title
         id="title1">ionicons-v5-l</title><path
         d="m 40,128.81977 v 49.49997 a 37.333334,31.999976 0 0 1 -23.4675,29.70997 l -13.8133304,4.735 a 18.666667,15.999988 0 0 0 -11.36917,11.73499 l -5.8333296,25.06998 a 9.3333334,7.9999939 0 0 1 -9.170002,6.43 h -96.693338 a 9.3333334,7.9999939 0 0 1 -9.1525,-6.43 L -135.35,224.4997 a 18.666667,15.999988 0 0 0 -11.36917,-11.71999 l -13.81333,-4.735 A 37.333334,31.999976 0 0 1 -184,178.33474 V 127.99977 C -184,75.039814 -133.9675,32.094847 -72.204166,31.999847 -10.44083,31.904847 40,75.924813 40,128.81977 Z"
         style="fill:none;stroke:#ffffff;stroke-width:16;stroke-linecap:round;stroke-miterlimit:10;stroke-opacity:1"
         id="path1" /><ellipse
         cx="-123.33334"
         cy="155.99976"
         style="fill:none;stroke:#ffffff;stroke-width:16;stroke-linecap:round;stroke-miterlimit:10;stroke-opacity:1"
         id="circle1"
         rx="23.333334"
         ry="19.999985" /><ellipse
         cx="-20.666664"
         cy="155.99976"
         style="fill:none;stroke:#ffffff;stroke-width:16;stroke-linecap:round;stroke-miterlimit:10;stroke-opacity:1"
         id="circle2"
         rx="23.333334"
         ry="19.999985" /><polygon
         points="240,384 272,384 256,336 "
         style="fill:none;stroke:#ffffff;stroke-width:29.6263;stroke-linecap:round;stroke-linejoin:round;stroke-opacity:1"
         id="polygon2"
         transform="matrix(0.58333334,0,0,0.49999962,-221.33334,15.999859)" /><line
         x1="-72"
         y1="235.80626"
         x2="-72"
         y2="254.60187"
         style="fill:none;stroke:#ffffff;stroke-width:16;stroke-linecap:round;stroke-linejoin:round;stroke-opacity:1"
         id="line2" /><line
         x1="-100"
         y1="234.40845"
         x2="-100"
         y2="254.13593"
         style="fill:none;stroke:#ffffff;stroke-width:16;stroke-linecap:round;stroke-linejoin:round;stroke-opacity:1"
         id="line3" /><line
         x1="-44"
         y1="236.85463"
         x2="-44"
         y2="254.95132"
         style="fill:none;stroke:#ffffff;stroke-width:16;stroke-linecap:round;stroke-linejoin:round;stroke-opacity:1"
         id="line4" /></g></g></svg>
